<?xml version="1.0" encoding="UTF-8" standalone="no"?>
<svg
   xmlns:dc="http://purl.org/dc/elements/1.1/"
   xmlns:cc="http://creativecommons.org/ns#"
   xmlns:rdf="http://www.w3.org/1999/02/22-rdf-syntax-ns#"
   xmlns:svg="http://www.w3.org/2000/svg"
   xmlns="http://www.w3.org/2000/svg"
   xmlns:sodipodi="http://sodipodi.sourceforge.net/DTD/sodipodi-0.dtd"
   xmlns:inkscape="http://www.inkscape.org/namespaces/inkscape"
   viewBox="0 0 1013.2267 763.08002"
   height="763.08002"
   width="1013.2267"
   xml:space="preserve"
   id="svg2"
   version="1.1"
   sodipodi:docname="elixir.svg"
   inkscape:version="0.92.5 (2060ec1f9f, 2020-04-08)"><sodipodi:namedview
     pagecolor="#000000"
     bordercolor="#666666"
     borderopacity="1"
     objecttolerance="10"
     gridtolerance="10"
     guidetolerance="10"
     inkscape:pageopacity="0"
     inkscape:pageshadow="2"
     inkscape:window-width="1848"
     inkscape:window-height="1043"
     id="namedview983"
     showgrid="false"
     inkscape:zoom="0.30927294"
     inkscape:cx="-75.39684"
     inkscape:cy="381.54001"
     inkscape:window-x="72"
     inkscape:window-y="0"
     inkscape:window-maximized="1"
     inkscape:current-layer="g10" /><metadata
     id="metadata8"><rdf:RDF><cc:Work
         rdf:about=""><dc:format>image/svg+xml</dc:format><dc:type
           rdf:resource="http://purl.org/dc/dcmitype/StillImage" /><dc:title></dc:title></cc:Work></rdf:RDF></metadata><defs
     id="defs6" /><g
     transform="matrix(1.3333333,0,0,-1.3333333,0,763.08)"
     id="g10"><path
       d="m 716.902,572.306 c -23.755,0 -43.014,-19.256 -43.014,-43.015 0,-7.438 1.889,-14.434 5.21,-20.537 -4.282,-2.133 -14.252,-7.135 -28.22,-14.389 -5.2,10.655 -16.109,18.013 -28.762,18.013 -17.687,0 -32.025,-14.337 -32.025,-32.025 0,-5.908 1.629,-11.425 4.419,-16.175 -7.182,-3.963 -14.639,-8.123 -22.285,-12.448 -4.497,6.842 -12.23,11.366 -21.027,11.366 -13.893,0 -25.156,-11.262 -25.156,-25.157 0,-4.114 1.006,-7.986 2.758,-11.413 -7.915,-4.722 -15.892,-9.56 -23.871,-14.487 -3.201,2.71 -7.333,4.35 -11.857,4.35 -10.147,0 -18.373,-8.226 -18.373,-18.373 0,-1.632 0.234,-3.205 0.633,-4.71 -32.167,-20.897 -62.936,-42.796 -87.856,-64.071 -29.06,64.983 -71.913,136.315 -131.557,194.393 -0.056,0.056 -0.113,0.112 -0.169,0.169 -6.979,6.876 -12.761,3.843 -4.738,-4.722 0.099,-0.108 0.203,-0.22 0.306,-0.33 50.623,-54.47 90.388,-133.303 117.49,-205.185 C 265.999,225.77 152.665,55.666 276.884,2.21406 c 18.086,-7.78281 26.329,7.09688 18.545,11.67694 -1.398,0.8242 -56.722,30.7289 -21.553,122.604 h 88.525 c 4.741,0 8.585,3.845 8.585,8.586 0,4.741 -3.844,8.585 -8.585,8.585 h -81.186 c 4.751,10.158 10.544,20.984 17.52,32.511 h 63.663 c 4.744,0 8.586,3.844 8.586,8.585 0,4.741 -3.842,8.586 -8.586,8.586 h -52.719 c 6.571,9.833 13.946,20.126 22.234,30.909 h 30.485 c 4.744,0 8.586,3.845 8.586,8.585 0,4.741 -3.842,8.586 -8.586,8.586 h -16.86 c 9.616,11.749 20.227,24.021 31.971,36.862 0.102,0.112 0.204,0.223 0.303,0.335 23.345,-67.604 34.617,-125.249 32.145,-144.478 -1.344,-10.464 -8.097,-14.837 -10.812,-16.125 -4.349,-2.061 -6.131,-8.063 0.687,-10.072 21.751,-6.413 35.139,15.18 37.549,32.51 2.428,17.477 -9.466,81.463 -40.874,157.748 26.243,26.107 56.527,51.046 87.398,73.901 2.699,-1.56 5.824,-2.467 9.167,-2.467 10.148,0 18.374,8.227 18.374,18.374 0,1.235 -0.126,2.442 -0.359,3.609 8.204,5.718 16.374,11.276 24.453,16.646 4.298,-3.427 9.734,-5.488 15.658,-5.488 13.893,0 25.156,11.262 25.156,25.156 0,2.089 -0.282,4.107 -0.762,6.047 8.057,5.001 15.876,9.761 23.388,14.261 5.833,-6.101 14.03,-9.919 23.136,-9.919 17.687,0 32.025,14.337 32.025,32.025 0,3.115 -0.467,6.117 -1.296,8.964 13.67,7.612 23.64,12.99 28.507,15.767 7.743,-11.35 20.772,-18.807 35.55,-18.807 23.756,0 43.015,19.256 43.015,43.014 0,23.759 -19.259,43.015 -43.015,43.015"
       style="fill:#f46b17;fill-opacity:1;fill-rule:nonzero;stroke:none;stroke-width:0.1"
       id="path14"
       inkscape:connector-curvature="0" /><path
       d="m 227.497,228.024 c 1.594,3.483 2.938,7.228 4.554,11.789 1.601,4.282 3.211,9.638 4.547,15.803 l 16.351,70.727 c 1.336,7.236 2.393,12.591 2.683,15.8 0.526,2.409 0.526,5.091 0.526,8.572 0,1.072 0,2.145 0,3.217 h 36.969 l -22.239,-98.316 c -1.61,-6.97 -2.667,-12.32 -3.212,-16.071 -0.808,-4.019 -0.808,-7.765 -0.808,-11.521 h -39.371"
       style="fill:#ffffff;fill-opacity:1;fill-rule:nonzero;stroke:none;stroke-width:0.1"
       id="path16"
       inkscape:connector-curvature="0" /><path
       d="m 126.714,326.343 c 0.803,2.41 1.074,4.826 1.074,6.427 0,1.065 -0.271,1.873 -0.534,2.681 -1.084,1.602 -3.749,2.402 -7.502,2.402 H 62.9492 c -3.7371,0 -6.4254,-0.8 -8.0355,-2.402 -1.8727,-1.616 -3.2035,-4.562 -3.7457,-9.108 L 44.4688,297.417 H 120.01 Z m 8.573,-98.319 H 25.7172 c -10.9848,0 -18.47306,2.409 -22.50822,7.502 C 1.08125,238.466 0,242.48 0,247.578 c 0,3.751 0.533984,8.301 1.87305,13.673 L 15.543,320.716 c 2.9379,12.054 7.2199,20.626 13.1199,25.725 6.1551,5.082 14.4695,7.491 25.7223,7.491 h 80.9018 c 11.518,0 19.017,-2.409 22.763,-7.491 2.409,-2.954 3.498,-6.98 3.498,-12.334 0,-4.026 -0.544,-8.3 -1.883,-13.391 l -8.843,-39.391 H 40.7152 L 34.818,255.616 c -0.5313,-2.667 -0.7946,-4.829 -0.7946,-6.165 0,-1.336 0,-2.41 0.5422,-2.935 0.7891,-1.616 3.2035,-2.421 6.9653,-2.421 h 80.3511 c 7.779,0 15.007,0.805 20.907,2.131 l -7.502,-18.202"
       style="fill:#ffffff;fill-opacity:1;fill-rule:nonzero;stroke:none;stroke-width:0.1"
       id="path18"
       inkscape:connector-curvature="0" /><path
       d="m 162.598,228.024 c 1.701,3.896 3.123,8.103 4.832,13.211 1.711,4.814 3.412,10.813 4.826,17.73 L 200.399,389.3 c 1.701,8.113 2.836,14.122 3.402,17.72 0.29,3.31 0.574,7.81 0.574,13.22 H 243.59 L 208.636,258.965 c -1.696,-7.813 -2.844,-13.828 -3.413,-18.03 -0.848,-4.502 -0.848,-8.709 -0.848,-12.911 h -41.777"
       style="fill:#ffffff;fill-opacity:1;fill-rule:nonzero;stroke:none;stroke-width:0.1"
       id="path20"
       inkscape:connector-curvature="0" /><path
       d="m 441.252,228.024 c 1.594,3.483 2.933,7.228 4.54,11.789 1.615,4.282 3.225,9.638 4.553,15.803 l 16.353,70.727 c 1.336,7.236 2.401,12.591 2.664,15.8 0.545,2.409 0.545,5.091 0.545,8.572 0,1.072 0,2.145 0,3.217 h 36.962 l -22.226,-98.316 c -1.608,-6.97 -2.684,-12.32 -3.209,-16.071 -0.811,-4.019 -0.811,-7.765 -0.811,-11.521 h -39.371"
       style="fill:#ffffff;fill-opacity:1;fill-rule:nonzero;stroke:none;stroke-width:0.1"
       id="path22"
       inkscape:connector-curvature="0" /><path
       d="m 614.595,332.77 c -4.027,0.272 -8.038,0.537 -12.591,0.537 h -17.952 c -3.464,0 -6.416,-0.8 -8.025,-2.138 -2.144,-1.616 -3.488,-4.288 -4.553,-8.308 l -15.007,-67.245 c -2.675,-10.447 -3.745,-18.486 -3.745,-24.646 0,-1.079 0,-2.136 0,-2.946 h -39.114 c 1.6,4.019 3.209,7.781 4.28,11.521 1.073,3.477 2.417,8.843 4.29,16.071 l 16.066,70.727 c 1.878,6.964 2.686,12.319 3.496,16.337 0.537,3.761 0.537,7.499 0.537,11.252 h 32.942 l -1.336,-12.853 c 2.144,4.274 4.821,7.49 8.304,9.636 3.48,2.145 8.036,3.217 14.19,3.217 h 32.159 l 7.757,-13.918 c -1.602,-1.352 -2.938,-2.961 -4.553,-5.099 -1.868,-2.408 -3.204,-3.481 -4.011,-3.481 -4.819,0.528 -9.125,1.073 -13.134,1.336"
       style="fill:#ffffff;fill-opacity:1;fill-rule:nonzero;stroke:none;stroke-width:0.1"
       id="path24"
       inkscape:connector-curvature="0" /><path
       d="m 299.328,397.966 c 0,-10.009 -8.114,-18.13 -18.13,-18.13 -10.015,0 -18.14,8.121 -18.14,18.13 0,10.017 8.125,18.139 18.14,18.139 10.016,0 18.13,-8.122 18.13,-18.139"
       style="fill:#ffffff;fill-opacity:1;fill-rule:nonzero;stroke:none;stroke-width:0.1"
       id="path26"
       inkscape:connector-curvature="0" /></g></svg>