<?xml version="1.0" encoding="UTF-8" standalone="no"?>
<svg
  xmlns:dc="http://purl.org/dc/elements/1.1/"
  xmlns:cc="http://creativecommons.org/ns#"
  xmlns:rdf="http://www.w3.org/1999/02/22-rdf-syntax-ns#"
  xmlns:svg="http://www.w3.org/2000/svg"
  xmlns="http://www.w3.org/2000/svg"
  width="40mm"
  height="40mm"
  version="1.1"
  viewBox="0 0 40 40"
  id="brain">
  <defs>
    <!-- Add custom style -->
    <style>
      /* Style nodes */
      g#nodes circle {
        fill: #0f3e63;
      }
      /* Style edges */
      g#edges path {
        stroke: #0f3e63;
        stroke-opacity: .5;
        stroke-width: .75;
      }
    </style>
  </defs>
  <g id="edges" transform="translate(-64.049724,-66.493921)">
    <path d="m 83.35434,84.88059 -2.169695,1.446436"/>
    <path d="m 81.184645,86.327026 3.616132,2.336595"/>
    <path d="m 83.35434,84.88059 1.446437,3.783031"/>
    <path d="m 86.080313,85.269969 -1.279536,3.393652"/>
    <path d="m 83.35434,84.88059 2.725973,0.389379"/>
    <path d="m 81.184645,86.327026 -1.335197,3.671792"/>
    <path d="m 84.800777,88.663621 -4.951329,1.335197"/>
    <path d="M 82.631082,79.484142 83.35434,84.88059"/>
    <path d="M 84.800777,81.876396 83.35434,84.88059"/>
    <path d="m 82.631082,79.484142 2.169695,2.392254"/>
    <path d="m 84.800777,81.876396 1.279536,3.393573"/>
    <path d="m 77.624093,86.327026 h 3.560552"/>
    <path d="m 77.624093,86.327026 2.225355,3.671792"/>
    <path d="M 78.514251,80.986238 83.35434,84.88059"/>
    <path d="m 82.631082,79.484142 -4.116831,1.502096"/>
    <path d="m 84.800777,88.663621 5.062568,3.949931"/>
    <path d="m 84.800777,88.663621 -0.389458,4.116831"/>
    <path d="m 89.863345,92.613552 -5.452026,0.1669"/>
    <path d="m 79.849448,89.998818 4.561871,2.781634"/>
    <path d="m 89.585206,84.268571 -3.504893,1.001398"/>
    <path d="m 86.080313,85.269969 2.948535,2.726053"/>
    <path d="m 89.585206,84.268571 -0.556358,3.727451"/>
    <path d="m 89.028848,87.996022 -4.228071,0.667599"/>
    <path d="m 86.914812,80.541199 -0.834499,4.72877"/>
    <path d="m 86.914812,80.541199 2.670394,3.727372"/>
    <path d="m 86.914812,80.541199 -2.114035,1.335197"/>
    <path d="m 82.631082,79.484142 4.28373,1.057057"/>
    <path d="m 78.514251,80.986238 2.670394,5.340788"/>
    <path d="m 78.514251,80.986238 -0.890158,5.340788"/>
    <path d="m 89.028848,87.996022 4.506289,1.112638"/>
    <path d="m 89.028848,87.996022 0.834497,4.61753"/>
    <path d="m 93.535137,89.10866 -3.671792,3.504892"/>
    <path d="m 79.849448,89.998818 -1.446436,4.561869"/>
    <path d="m 84.411319,92.780452 -6.008307,1.780235"/>
    <path d="M 77.624093,86.327026 74.84246,91.667814"/>
    <path d="m 77.624093,86.327026 -3.838611,1.446437"/>
    <path d="m 73.785482,87.773463 1.056978,3.894351"/>
    <path d="m 84.411319,92.780452 -4.005512,3.94993"/>
    <path d="m 78.403012,94.560687 2.002795,2.169695"/>
    <path d="M 79.849448,89.998818 74.84246,91.667814"/>
    <path d="m 74.84246,79.929261 3.671791,1.056977"/>
    <path d="m 74.84246,79.929261 2.781633,6.397765"/>
    <path d="m 74.84246,91.667814 3.560552,2.892873"/>
    <path d="m 84.411319,92.780452 3.671791,3.282331"/>
    <path d="m 88.08311,96.062783 -7.677303,0.667599"/>
    <path d="m 74.84246,91.667814 -1.613337,3.282333"/>
    <path d="m 78.403012,94.560687 -5.173889,0.38946"/>
    <path d="m 85.857836,77.258867 1.056976,3.282332"/>
    <path d="m 88.528149,78.427164 -1.613337,2.114035"/>
    <path d="m 85.857836,77.258867 2.670313,1.168297"/>
    <path d="m 91.198543,80.09616 -1.613337,4.172411"/>
    <path d="m 91.198543,80.09616 -4.283731,0.445039"/>
    <path d="m 85.857836,77.258867 -3.226754,2.225275"/>
    <path d="m 82.853642,76.313129 -0.22256,3.171013"/>
    <path d="m 82.853642,76.313129 3.004194,0.945738"/>
    <path d="M 89.863345,92.613552 88.08311,96.062783"/>
    <path d="m 89.585206,84.268571 4.45063,1.891556"/>
    <path d="m 94.035836,86.160127 -5.006988,1.835895"/>
    <path d="M 94.035836,86.160127 93.535137,89.10866"/>
    <path d="M 91.532342,95.172627 88.08311,96.062783"/>
    <path d="m 89.863345,92.613552 1.668997,2.559075"/>
    <path d="m 88.528149,78.427164 2.670394,1.668996"/>
    <path d="m 78.458591,76.313129 4.172491,3.171013"/>
    <path d="m 78.458591,76.313129 h 4.395051"/>
    <path d="m 95.426693,81.932056 -5.841487,2.336515"/>
    <path d="m 95.426693,81.932056 -1.390857,4.228071"/>
    <path d="m 71.560127,84.88059 6.063966,1.446436"/>
    <path d="M 74.84246,79.929261 71.560127,84.88059"/>
    <path d="m 78.458591,76.313129 0.05566,4.673109"/>
    <path d="m 78.403012,94.560687 0.333799,3.449232"/>
    <path d="m 78.403012,94.560687 -1.335197,2.280936"/>
    <path d="m 77.067815,96.841623 1.668996,1.168296"/>
    <path d="m 89.863345,92.613552 4.172491,0.1669"/>
    <path d="m 94.035836,92.780452 -2.503494,2.392175"/>
    <path d="M 78.458591,76.313129 74.84246,79.929261"/>
    <path d="m 80.405807,96.730382 -1.668996,1.279537"/>
    <path d="m 80.405807,96.730382 -1.891556,3.727378"/>
    <path d="m 78.736811,98.009919 -0.22256,2.447841"/>
    <path d="m 73.785482,87.773463 -3.171093,1.613336"/>
    <path d="m 71.560127,84.88059 2.225355,2.892873"/>
    <path d="m 71.560127,84.88059 -0.945738,4.506209"/>
    <path d="m 70.614389,89.386799 4.228071,2.281015"/>
    <path d="m 93.535137,89.10866 0.500699,3.671792"/>
    <path d="m 93.535137,89.10866 1.780235,1.668997"/>
    <path d="m 95.315372,90.777657 -1.279536,2.002795"/>
    <path d="m 81.963483,73.531415 0.890159,2.781714"/>
    <path d="m 84.188839,74.922272 -1.335197,1.390857"/>
    <path d="m 81.963483,73.531415 2.225356,1.390857"/>
    <path d="m 84.188839,74.922272 1.668997,2.336595"/>
    <path d="m 87.69365,75.089172 0.834499,3.337992"/>
    <path d="m 87.69365,75.089172 -1.835814,2.169695"/>
    <path d="M 91.421101,76.758168 91.198543,80.09616"/>
    <path d="M 92.47808,78.371504 91.198543,80.09616"/>
    <path d="m 91.421101,76.758168 1.056979,1.613336"/>
    <path d="M 96.26119,87.272764 93.535137,89.10866"/>
    <path d="m 96.26119,87.272764 -0.945818,3.504893"/>
    <path d="m 91.421101,76.758168 -2.892952,1.668996"/>
    <path d="m 91.198543,80.09616 4.22815,1.835896"/>
    <path d="m 94.035836,86.160127 2.225354,1.112637"/>
    <path d="m 77.067815,96.841623 -3.616132,0.333799"/>
    <path d="m 73.229123,94.950147 3.838692,1.891476"/>
    <path d="m 73.229123,94.950147 0.22256,2.225275"/>
    <path d="m 85.579614,74.087774 0.278222,3.171093"/>
    <path d="m 85.579614,74.087774 2.114036,1.001398"/>
    <path d="m 74.84246,91.667814 -4.50621,2.392174"/>
    <path d="M 70.614389,89.386799 70.33625,94.059988"/>
    <path d="m 96.984369,84.49113 -2.948533,1.668997"/>
    <path d="M 96.984369,84.49113 96.26119,87.272764"/>
    <path d="m 89.418306,75.589871 -0.890157,2.837293"/>
    <path d="m 87.69365,75.089172 1.724656,0.500699"/>
    <path d="m 89.418306,75.589871 2.002795,1.168297"/>
    <path d="m 88.695048,72.752577 0.723258,2.837294"/>
    <path d="M 88.695048,72.752577 87.69365,75.089172"/>
    <path d="m 85.579614,74.087774 -1.390775,0.834498"/>
    <path d="m 83.57682,72.808237 0.612019,2.114035"/>
    <path d="m 83.57682,72.808237 2.002794,1.279537"/>
    <path d="m 92.47808,78.371504 2.058454,1.557757"/>
    <path d="M 94.536534,79.929261 91.198543,80.09616"/>
    <path d="m 94.536534,79.929261 0.890159,2.002795"/>
    <path d="m 71.560127,84.88059 -4.39497,2.169614"/>
    <path d="m 70.836949,82.543995 0.723178,2.336595"/>
    <path d="m 70.836949,82.543995 -3.671792,4.506209"/>
    <path d="m 74.84246,79.929261 -4.005511,2.614734"/>
    <path d="m 75.398818,75.200411 3.059773,1.112718"/>
    <path d="m 78.458591,73.865214 v 2.447915"/>
    <path d="m 78.458591,73.865214 -3.059773,1.335197"/>
    <path d="M 94.759094,77.481346 92.47808,78.371504"/>
    <path d="m 94.759094,77.481346 -0.22256,2.447915"/>
    <path d="m 81.963483,73.531415 -3.504892,2.781714"/>
    <path d="m 77.067815,96.841623 -1.502097,1.891554"/>
    <path d="m 78.736811,98.009919 -3.171093,0.723258"/>
    <path d="m 75.565718,98.733177 2.948533,1.724583"/>
    <path d="m 95.426693,81.932056 1.557676,2.559074"/>
    <path d="m 95.426693,81.932056 3.783033,0.778839"/>
    <path d="M 99.209726,82.710895 96.984369,84.49113"/>
    <path d="m 81.963483,73.531415 -3.504892,0.333799"/>
    <path d="m 75.398818,75.200411 -0.556358,4.72885"/>
    <path d="m 73.451683,97.175422 2.114035,1.557755"/>
    <path d="m 70.33625,94.059988 2.892873,0.890159"/>
    <path d="m 78.514251,100.45776 -1.835896,2.61473"/>
    <path d="m 71.059428,77.648246 3.783032,2.281015"/>
    <path d="m 75.398818,75.200411 -4.33939,2.447835"/>
    <path d="m 82.130383,70.527302 -0.1669,3.004113"/>
    <path d="m 83.57682,72.808237 -1.613337,0.723178"/>
    <path d="m 82.130383,70.527302 1.446437,2.280935"/>
    <path d="m 88.695048,72.752577 -3.115434,1.335197"/>
    <path d="m 73.229123,94.950147 -2.114035,2.503414"/>
    <path d="m 70.33625,94.059988 0.778838,3.393573"/>
    <path d="m 67.165157,87.050204 3.449232,2.336595"/>
    <path d="m 91.421101,76.758168 3.337993,0.723178"/>
    <path d="m 97.874528,80.31864 -2.447835,1.613416"/>
    <path d="m 94.536534,79.929261 3.337994,0.389379"/>
    <path d="m 92.47808,74.811033 -1.056979,1.947135"/>
    <path d="m 92.47808,74.811033 2.281014,2.670313"/>
    <path d="m 92.47808,74.811033 -3.059774,0.778838"/>
    <path d="m 80.072008,72.418778 1.891475,1.112637"/>
    <path d="m 80.072008,72.418778 -1.613417,1.446436"/>
    <path d="m 77.846653,71.30614 2.392255,0.05566"/>
    <path d="m 77.846653,71.30614 2.225355,1.112638"/>
    <path d="m 80.238908,71.3618 -0.1669,1.056978"/>
    <path d="m 96.984369,84.49113 3.560551,2.503495"/>
    <path d="m 100.54492,86.994625 -4.28373,0.278139"/>
    <path d="m 96.26119,87.272764 2.169615,1.390857"/>
    <path d="m 100.54492,86.994625 -2.114115,1.668996"/>
    <path d="m 98.430805,88.663621 -3.115433,2.114036"/>
    <path d="M 85.635276,71.58428 83.57682,72.808237"/>
    <path d="m 85.635276,71.58428 -0.05566,2.503494"/>
    <path d="m 85.635276,71.58428 3.059772,1.168297"/>
    <path d="m 90.976064,73.142036 -1.557758,2.447835"/>
    <path d="m 90.976064,73.142036 1.502016,1.668997"/>
    <path d="m 71.059428,77.648246 -0.222479,4.895749"/>
    <path d="m 77.846653,71.30614 0.611938,2.559074"/>
    <path d="M 84.411319,70.638542 83.57682,72.808237"/>
    <path d="m 84.411319,70.638542 1.223957,0.945738"/>
    <path d="m 98.375226,77.481346 0.22248,1.557757"/>
    <path d="m 98.375226,77.481346 -1.780235,1.223958"/>
    <path d="m 96.594991,78.705304 2.002715,0.333799"/>
    <path d="m 96.594991,78.705304 -2.058457,1.223957"/>
    <path d="m 94.759094,77.481346 1.835897,1.223958"/>
    <path d="m 88.695048,72.752577 2.281016,0.389459"/>
    <path d="m 94.759094,77.481346 h 3.616132"/>
    <path d="m 90.976064,71.973739 -2.281016,0.778838"/>
    <path d="m 90.976064,71.973739 v 1.168297"/>
    <path d="m 73.451683,97.175422 -1.223958,2.503493"/>
    <path d="m 73.451683,97.175422 -2.336595,0.278139"/>
    <path d="m 71.115088,97.453561 1.112637,2.225354"/>
    <path d="m 75.565718,98.733177 -3.337993,0.945738"/>
    <path d="m 75.176259,72.641337 0.222559,2.559074"/>
    <path d="m 75.176259,72.641337 3.282332,1.223877"/>
    <path d="m 80.238908,71.3618 1.724575,2.169615"/>
    <path d="m 70.614389,89.386799 -4.895668,2.114116"/>
    <path d="m 67.165157,87.050204 -1.446436,4.450711"/>
    <path d="m 71.059428,77.648246 -2.837294,0.778918"/>
    <path d="m 68.222134,78.427164 2.614815,4.116831"/>
    <path d="m 65.718721,91.500915 4.617529,2.559073"/>
    <path d="m 96.594991,78.705304 1.279537,1.613336"/>
    <path d="m 82.130383,70.527302 2.280936,0.11124"/>
    <path d="m 88.027449,70.694202 0.667599,2.058375"/>
    <path d="m 89.028848,71.3618 -0.3338,1.390777"/>
    <path d="M 88.027449,70.694202 89.028848,71.3618"/>
    <path d="m 97.874528,80.31864 1.335198,2.392255"/>
    <path d="m 71.560127,74.811033 3.838691,0.389378"/>
    <path d="m 75.176259,72.641337 -3.616132,2.169696"/>
    <path d="M 82.130383,70.527302 80.238908,71.3618"/>
    <path d="m 77.846653,71.30614 -2.670394,1.335197"/>
    <path d="m 75.565718,98.733177 -2.336595,3.282333"/>
    <path d="m 72.227725,99.678915 1.001398,2.336595"/>
    <path d="M 88.027449,70.694202 85.635276,71.58428"/>
    <path d="m 69.167953,96.452243 1.947135,1.001318"/>
    <path d="m 70.33625,94.059988 -1.168297,2.392255"/>
    <path d="m 71.560127,74.811033 -0.500699,2.837213"/>
    <path d="m 71.560127,74.811033 -3.337993,3.616131"/>
    <path d="m 89.028848,71.3618 1.947216,0.611939"/>
    <path d="M 93.256998,71.973739 92.47808,74.811033"/>
    <path d="m 93.256998,71.973739 -2.280934,1.168297"/>
    <path d="M 86.692333,69.915283 85.635276,71.58428"/>
    <path d="m 86.692333,69.915283 1.335116,0.778919"/>
    <path d="m 89.362647,70.304743 1.613417,1.668996"/>
    <path d="M 89.362647,70.304743 89.028848,71.3618"/>
    <path d="m 86.692333,69.915283 -2.281014,0.723259"/>
    <path d="m 75.565718,98.733177 1.112637,4.339313"/>
    <path d="m 99.209726,82.710895 1.335194,4.28373"/>
    <path d="m 98.430805,88.663621 2.169695,0.1669"/>
    <path d="m 101.435,80.3743 -2.225274,2.336595"/>
    <path d="M 97.874528,80.31864 101.435,80.3743"/>
    <path d="m 102.21384,82.321435 -1.66892,4.67319"/>
    <path d="m 102.21384,82.321435 -3.004114,0.38946"/>
    <path d="M 98.597706,79.039103 97.874528,80.31864"/>
    <path d="m 96.428091,74.588473 1.947135,2.892873"/>
    <path d="m 96.428091,74.588473 -1.668997,2.892873"/>
    <path d="m 65.9412,81.153138 4.895749,1.390857"/>
    <path d="M 68.222134,78.427164 65.9412,81.153138"/>
    <path d="m 100.54492,86.994625 0.0556,1.835896"/>
    <path d="m 89.362647,70.304743 -1.335198,0.389459"/>
    <path d="m 70.33625,94.059988 -2.948614,0.44504"/>
    <path d="m 67.387636,94.505028 1.780317,1.947215"/>
    <path d="m 67.165157,87.050204 -2.726054,0.723259"/>
    <path d="m 65.551821,85.548188 1.613336,1.502016"/>
    <path d="m 65.551821,85.548188 -1.112718,2.225275"/>
    <path d="m 70.836949,82.543995 -5.285128,3.004193"/>
    <path d="m 86.692333,69.915283 2.670314,0.38946"/>
    <path d="m 96.428091,74.588473 -3.950011,0.22256"/>
    <path d="m 90.976064,71.973739 h 2.280934"/>
    <path d="M 98.597706,79.039103 101.435,80.3743"/>
    <path d="m 69.167953,96.452243 4.06117,5.563267"/>
    <path d="m 65.551821,94.171229 1.835815,0.333799"/>
    <path d="m 65.551821,94.171229 3.616132,2.281014"/>
    <path d="m 73.229123,102.01551 3.449232,1.05698"/>
    <path d="m 65.718721,91.500915 1.668915,3.004113"/>
    <path d="m 92.47808,70.527302 -1.502016,1.446437"/>
    <path d="m 92.47808,70.527302 0.778918,1.446437"/>
    <path d="M 95.482272,72.641337 92.47808,74.811033"/>
    <path d="m 95.482272,72.641337 0.945819,1.947136"/>
    <path d="m 65.9412,81.153138 -0.389379,4.39505"/>
    <path d="m 64.439103,87.773463 1.279618,3.727452"/>
    <path d="m 97.874528,73.865214 -1.446437,0.723259"/>
    <path d="m 96.428091,74.588473 2.002714,1.223957"/>
    <path d="m 97.874528,73.865214 0.556277,1.947216"/>
    <path d="m 98.430805,75.81243 -0.05558,1.668916"/>
    <path d="m 98.597706,79.039103 h 2.225354"/>
    <path d="m 98.375226,77.481346 2.447834,1.557757"/>
    <path d="m 93.256998,71.973739 2.225274,0.667598"/>
    <path d="m 94.147076,70.527302 -0.890078,1.446437"/>
    <path d="m 94.147076,70.527302 1.335196,2.114035"/>
    <path d="m 89.362647,70.304743 3.115433,0.222559"/>
    <path d="m 92.47808,70.527302 h 1.668996"/>
    <path d="m 65.718721,91.500915 -0.1669,2.670314"/>
    <path d="m 64.439103,87.773463 -0.333799,3.894351"/>
    <path d="m 65.718721,91.500915 -1.613417,0.166899"/>
    <path d="m 101.04562,77.258867 -2.670394,0.222479"/>
    <path d="m 101.04562,77.258867 -0.22256,1.780236"/>
    <path d="m 102.9371,86.716486 -2.3366,2.114035"/>
    <path d="m 102.9371,86.716486 -2.39218,0.278139"/>
    <path d="M 100.82306,79.039103 101.435,80.3743"/>
    <path d="m 101.435,80.3743 0.77884,1.947135"/>
    <path d="m 102.21384,82.321435 0.72326,4.395051"/>
    <path d="m 64.105304,91.667814 1.446517,2.503415"/>
    <path d="m 97.985766,72.418778 -2.503494,0.222559"/>
    <path d="m 95.482272,72.641337 2.392256,1.223877"/>
    <path d="m 97.985766,72.418778 -0.111238,1.446436"/>
    <path d="m 100.32236,75.367311 -1.947134,2.114035"/>
    <path d="m 100.32236,75.367311 0.72326,1.891556"/>
    <path d="M 100.32236,75.367311 98.430805,75.81243"/>
    <path d="M 103.15966,78.872203 101.435,80.3743"/>
    <path d="m 103.15966,78.872203 -2.3366,0.1669"/>
    <path d="m 103.99415,80.930659 -1.78031,1.390776"/>
    <path d="m 102.21384,82.321435 1.78031,1.724657"/>
    <path d="m 103.99415,80.930659 v 3.115433"/>
    <path d="m 95.927392,71.139241 -0.44512,1.502096"/>
    <path d="m 94.147076,70.527302 1.780316,0.611939"/>
    <path d="M 99.599103,73.865214 98.430805,75.81243"/>
    <path d="m 99.599103,73.865214 0.723257,1.502097"/>
    <path d="m 97.874528,73.865214 h 1.724575"/>
    <path d="m 95.927392,71.139241 2.058374,1.279537"/>
    <path d="m 103.99415,84.046092 -1.05705,2.670394"/>
    <path d="m 101.435,80.3743 2.55915,0.556359"/>
    <path d="m 101.04562,77.258867 h 1.27954"/>
    <path d="m 102.32516,77.258867 -1.5021,1.780236"/>
    <path d="m 97.985766,72.418778 1.613337,1.446436"/>
    <path d="m 100.32236,75.367311 1.0014,0.333799"/>
    <path d="m 99.599103,73.865214 1.724657,1.835896"/>
    <path d="m 101.32376,75.70111 -0.27814,1.557757"/>
    <path d="m 101.32376,75.70111 1.0014,1.557757"/>
    <path d="m 102.32516,77.258867 0.8345,1.613336"/>
    <path d="m 103.15966,78.872203 0.83449,2.058456"/>
  </g>
  <g id="nodes" transform="translate(-64.049724,-66.493921)">
    <circle cx="86.747912" cy="69.915283" r=".1"/>
    <circle cx="89.418306" cy="70.304743" r=".1"/>
    <circle cx="82.186043" cy="70.527302" r=".1"/>
    <circle cx="92.533739" cy="70.527302" r=".1"/>
    <circle cx="94.202736" cy="70.527302" r=".1"/>
    <circle cx="84.466978" cy="70.638542" r=".1"/>
    <circle cx="88.08311" cy="70.694202" r=".1"/>
    <circle cx="95.982971" cy="71.139241" r=".1"/>
    <circle cx="77.902313" cy="71.30614" r=".1"/>
    <circle cx="80.294487" cy="71.3618" r=".1"/>
    <circle cx="89.084508" cy="71.3618" r=".1"/>
    <circle cx="85.690936" cy="71.58428" r=".1"/>
    <circle cx="91.031643" cy="71.973739" r=".1"/>
    <circle cx="93.312577" cy="71.973739" r=".1"/>
    <circle cx="80.127587" cy="72.418778" r=".1"/>
    <circle cx="98.041428" cy="72.418778" r=".1"/>
    <circle cx="75.231919" cy="72.641337" r=".1"/>
    <circle cx="95.537932" cy="72.641337" r=".1"/>
    <circle cx="88.750707" cy="72.752577" r=".1"/>
    <circle cx="83.63248" cy="72.808237" r=".1"/>
    <circle cx="91.031643" cy="73.142036" r=".1"/>
    <circle cx="82.019143" cy="73.531415" r=".1"/>
    <circle cx="78.514251" cy="73.865214" r=".1"/>
    <circle cx="97.930107" cy="73.865214" r=".1"/>
    <circle cx="99.654763" cy="73.865214" r=".1"/>
    <circle cx="85.635276" cy="74.087774" r=".1"/>
    <circle cx="96.48367" cy="74.588473" r=".1"/>
    <circle cx="71.615787" cy="74.811033" r=".1"/>
    <circle cx="92.533739" cy="74.811033" r=".1"/>
    <circle cx="84.244418" cy="74.922272" r=".1"/>
    <circle cx="87.74931" cy="75.089172" r=".1"/>
    <circle cx="75.454478" cy="75.200411" r=".1"/>
    <circle cx="100.37802" cy="75.367311" r=".1"/>
    <circle cx="89.473966" cy="75.589871" r=".1"/>
    <circle cx="101.37942" cy="75.70111" r=".1"/>
    <circle cx="98.486467" cy="75.81243" r=".1"/>
    <circle cx="78.514251" cy="76.313129" r=".1"/>
    <circle cx="82.909221" cy="76.313129" r=".1"/>
    <circle cx="91.476763" cy="76.758168" r=".1"/>
    <circle cx="85.913415" cy="77.258867" r=".1"/>
    <circle cx="101.1012" cy="77.258867" r=".1"/>
    <circle cx="102.38074" cy="77.258867" r=".1"/>
    <circle cx="94.814673" cy="77.481346" r=".1"/>
    <circle cx="98.430805" cy="77.481346" r=".1"/>
    <circle cx="71.115088" cy="77.648246" r=".1"/>
    <circle cx="92.533739" cy="78.371504" r=".1"/>
    <circle cx="68.277795" cy="78.427164" r=".1"/>
    <circle cx="88.583809" cy="78.427164" r=".1"/>
    <circle cx="96.65057" cy="78.705304" r=".1"/>
    <circle cx="103.21524" cy="78.872203" r=".1"/>
    <circle cx="98.653365" cy="79.039103" r=".1"/>
    <circle cx="100.87872" cy="79.039103" r=".1"/>
    <circle cx="82.686742" cy="79.484142" r=".1"/>
    <circle cx="74.898119" cy="79.929261" r=".1"/>
    <circle cx="94.592196" cy="79.929261" r=".1"/>
    <circle cx="91.254203" cy="80.09616" r=".1"/>
    <circle cx="97.930107" cy="80.31864" r=".1"/>
    <circle cx="101.49066" cy="80.3743" r=".1"/>
    <circle cx="86.970472" cy="80.541199" r=".1"/>
    <circle cx="104.04973" cy="80.930659" r=".1"/>
    <circle cx="78.569911" cy="80.986238" r=".1"/>
    <circle cx="65.99686" cy="81.153138" r=".1"/>
    <circle cx="84.856436" cy="81.876396" r=".1"/>
    <circle cx="95.482272" cy="81.932056" r=".1"/>
    <circle cx="102.2695" cy="82.321435" r=".1"/>
    <circle cx="70.892528" cy="82.543995" r=".1"/>
    <circle cx="99.265305" cy="82.710895" r=".1"/>
    <circle cx="104.04973" cy="84.046092" r=".1"/>
    <circle cx="89.640866" cy="84.268571" r=".1"/>
    <circle cx="97.04003" cy="84.49113" r=".1"/>
    <circle cx="71.615787" cy="84.88059" r=".1"/>
    <circle cx="83.40992" cy="84.88059" r=".1"/>
    <circle cx="86.135975" cy="85.269969" r=".1"/>
    <circle cx="65.607401" cy="85.548188" r=".1"/>
    <circle cx="94.091495" cy="86.160127" r=".1"/>
    <circle cx="77.679753" cy="86.327026" r=".1"/>
    <circle cx="81.240305" cy="86.327026" r=".1"/>
    <circle cx="102.99276" cy="86.716486" r=".1"/>
    <circle cx="100.6005" cy="86.994625" r=".1"/>
    <circle cx="67.220737" cy="87.050204" r=".1"/>
    <circle cx="96.316772" cy="87.272764" r=".1"/>
    <circle cx="64.494763" cy="87.773463" r=".1"/>
    <circle cx="73.841062" cy="87.773463" r=".1"/>
    <circle cx="89.084508" cy="87.996022" r=".1"/>
    <circle cx="84.856436" cy="88.663621" r=".1"/>
    <circle cx="98.486467" cy="88.663621" r=".1"/>
    <circle cx="100.65616" cy="88.830521" r=".1"/>
    <circle cx="93.590796" cy="89.10866" r=".1"/>
    <circle cx="70.670049" cy="89.386799" r=".1"/>
    <circle cx="79.905108" cy="89.998818" r=".1"/>
    <circle cx="95.371034" cy="90.777657" r=".1"/>
    <circle cx="65.7743" cy="91.500915" r=".1"/>
    <circle cx="64.160964" cy="91.667814" r=".1"/>
    <circle cx="74.898119" cy="91.667814" r=".1"/>
    <circle cx="89.919005" cy="92.613552" r=".1"/>
    <circle cx="84.466978" cy="92.780452" r=".1"/>
    <circle cx="94.091495" cy="92.780452" r=".1"/>
    <circle cx="70.39183" cy="94.059988" r=".1"/>
    <circle cx="65.607401" cy="94.171229" r=".1"/>
    <circle cx="67.443296" cy="94.505028" r=".1"/>
    <circle cx="78.458591" cy="94.560687" r=".1"/>
    <circle cx="73.284783" cy="94.950147" r=".1"/>
    <circle cx="91.588001" cy="95.172627" r=".1"/>
    <circle cx="88.13877" cy="96.062783" r=".1"/>
    <circle cx="69.223532" cy="96.452243" r=".1"/>
    <circle cx="80.461387" cy="96.730382" r=".1"/>
    <circle cx="77.123394" cy="96.841623" r=".1"/>
    <circle cx="73.507263" cy="97.175422" r=".1"/>
    <circle cx="71.170748" cy="97.453561" r=".1"/>
    <circle cx="78.79239" cy="98.009919" r=".1"/>
    <circle cx="75.621378" cy="98.733177" r=".1"/>
    <circle cx="72.283386" cy="99.678915" r=".1"/>
    <circle cx="78.569911" cy="100.45776" r=".1"/>
    <circle cx="73.284783" cy="102.01551" r=".1"/>
    <circle cx="76.734015" cy="103.07249" r=".1"/>
  </g>
</svg>
